<svg width="35" height="35" viewBox="0 0 35 35" fill="none" xmlns="http://www.w3.org/2000/svg">
<path d="M28.4375 2.1875H4.375V10.9375H2.1875V24.0625H4.375V30.625H28.4375V24.0625H30.625V10.9375H28.4375V2.1875Z" fill="white"/>
<path d="M6.5625 0H28.4375V2.1875H6.5625V0Z" fill="black"/>
<path d="M4.375 4.375V2.1875H6.5625V4.375H4.375Z" fill="black"/>
<path d="M2.1875 10.9375V4.375H4.375V10.9375H2.1875Z" fill="black"/>
<path d="M2.1875 24.0625H0V10.9375H2.1875V24.0625Z" fill="black"/>
<path d="M4.375 30.625V24.0625H2.1875V30.625H4.375Z" fill="black"/>
<path d="M6.5625 32.8125H4.375V30.625H6.5625V32.8125Z" fill="black"/>
<path d="M15.3125 32.8125V35H6.5625V32.8125H15.3125Z" fill="black"/>
<path d="M19.6875 32.8125H15.3125V30.625H19.6875V32.8125Z" fill="black"/>
<path d="M28.4375 32.8125V35H19.6875V32.8125H28.4375Z" fill="black"/>
<path d="M30.625 30.625V32.8125H28.4375V30.625H30.625Z" fill="black"/>
<path d="M32.8125 24.0625V30.625H30.625V24.0625H32.8125Z" fill="black"/>
<path d="M32.8125 10.9375H35V24.0625H32.8125V10.9375Z" fill="black"/>
<path fill-rule="evenodd" clip-rule="evenodd" d="M30.625 4.375V2.1875H28.4375V4.375H30.625ZM30.625 4.375H32.8125V10.9375H30.625V4.375Z" fill="black"/>
<path d="M15.3125 10.9375H13.125V17.5H15.3125V10.9375Z" fill="black"/>
<path d="M19.6875 10.9375H21.875V17.5H19.6875V10.9375Z" fill="black"/>
<path d="M13.125 21.875H10.9375V24.0625H13.125V26.25H21.875V24.0625H24.0625V21.875H21.875V24.0625H13.125V21.875Z" fill="black"/>
<path d="M28.4375 2.1875H26.25V4.375H28.4375V10.9375H30.625V21.875H28.4375V28.4375H26.25V30.625H19.6875V28.4375H15.3125V30.625H6.5625V28.4375H4.375V30.625H6.5625V32.8125H15.3125V30.625H19.6875V32.8125H28.4375V30.625H30.625V24.0625H32.8125V10.9375H30.625V4.375H28.4375V2.1875Z" fill="#9CFCF0"/>
</svg>
