<svg width="150" height="35" viewBox="0 0 150 35" fill="none" xmlns="http://www.w3.org/2000/svg">
<path d="M28.0751 2.1875H4.31924V10.9375H2.15962V24.0625H4.31924V30.625H28.0751V24.0625H30.2347V10.9375H28.0751V2.1875Z" fill="white"/>
<path d="M6.47887 0H28.0751V2.1875H6.47887V0Z" fill="black"/>
<path d="M4.31924 4.375V2.1875H6.47887V4.375H4.31924Z" fill="black"/>
<path d="M2.15962 10.9375V4.375H4.31924V10.9375H2.15962Z" fill="black"/>
<path d="M2.15962 24.0625H0V10.9375H2.15962V24.0625Z" fill="black"/>
<path d="M4.31924 30.625V24.0625H2.15962V30.625H4.31924Z" fill="black"/>
<path d="M6.47887 32.8125H4.31924V30.625H6.47887V32.8125Z" fill="black"/>
<path d="M15.1174 32.8125V35H6.47887V32.8125H15.1174Z" fill="black"/>
<path d="M19.4366 32.8125H15.1174V30.625H19.4366V32.8125Z" fill="black"/>
<path d="M28.0751 32.8125V35H19.4366V32.8125H28.0751Z" fill="black"/>
<path d="M30.2347 30.625V32.8125H28.0751V30.625H30.2347Z" fill="black"/>
<path d="M32.3943 24.0625V30.625H30.2347V24.0625H32.3943Z" fill="black"/>
<path d="M32.3943 10.9375H34.554V24.0625H32.3943V10.9375Z" fill="black"/>
<path fill-rule="evenodd" clip-rule="evenodd" d="M30.2347 4.375V2.1875H28.0751V4.375H30.2347ZM30.2347 4.375H32.3943V10.9375H30.2347V4.375Z" fill="black"/>
<path d="M15.1174 10.9375H12.9577V17.5H15.1174V10.9375Z" fill="black"/>
<path d="M19.4366 10.9375H21.5962V17.5H19.4366V10.9375Z" fill="black"/>
<path d="M12.9577 21.875H10.7981V24.0625H12.9577V26.25H21.5962V24.0625H23.7558V21.875H21.5962V24.0625H12.9577V21.875Z" fill="black"/>
<path d="M28.0751 2.1875H25.9155V4.375H28.0751V10.9375H30.2347V21.875H28.0751V28.4375H25.9155V30.625H19.4366V28.4375H15.1174V30.625H6.47887V28.4375H4.31924V30.625H6.47887V32.8125H15.1174V30.625H19.4366V32.8125H28.0751V30.625H30.2347V24.0625H32.3943V10.9375H30.2347V4.375H28.0751V2.1875Z" fill="#9CFCF0"/>
<path d="M58.4404 11.2V12.7792C57.3457 11.5024 55.7203 10.7296 53.4978 10.7296C49.1523 10.7296 45.5698 14.5936 45.5698 19.6C45.5698 24.6064 49.1523 28.4704 53.4978 28.4704C55.7203 28.4704 57.3457 27.6976 58.4404 26.4208V28H63.4162V11.2H58.4404ZM54.493 23.6992C52.2041 23.6992 50.5455 22.12 50.5455 19.6C50.5455 17.08 52.2041 15.5008 54.493 15.5008C56.7818 15.5008 58.4404 17.08 58.4404 19.6C58.4404 22.12 56.7818 23.6992 54.493 23.6992Z" fill="black"/>
<path d="M85.6428 10.7296C83.2876 10.7296 81.7617 11.6032 80.8329 12.9472C79.9041 11.536 78.4446 10.7296 76.4874 10.7296C74.2649 10.7296 72.8054 11.6032 72.0424 12.7456V11.2H67.0666V28H72.0424V18.5248C72.0424 16.5424 72.9712 15.3664 74.6298 15.3664C76.222 15.3664 77.0182 16.4416 77.0182 18.1216V28H81.9939V18.5248C81.9939 16.5424 82.9227 15.3664 84.5813 15.3664C86.1736 15.3664 86.9697 16.4416 86.9697 18.1216V28H91.9455V17.6848C91.9455 13.4848 89.4576 10.7296 85.6428 10.7296Z" fill="black"/>
<path d="M97.8348 9.7216C99.4602 9.7216 100.82 8.344 100.82 6.6976C100.82 5.0512 99.4602 3.6736 97.8348 3.6736C96.2093 3.6736 94.8493 5.0512 94.8493 6.6976C94.8493 8.344 96.2093 9.7216 97.8348 9.7216ZM95.3469 28H100.323V11.2H95.3469V28Z" fill="black"/>
<path d="M106.452 9.7216C108.077 9.7216 109.437 8.344 109.437 6.6976C109.437 5.0512 108.077 3.6736 106.452 3.6736C104.826 3.6736 103.466 5.0512 103.466 6.6976C103.466 8.344 104.826 9.7216 106.452 9.7216ZM103.964 28H108.94V11.2H103.964V28Z" fill="black"/>
<path d="M122.499 10.7296C120.277 10.7296 118.651 11.5024 117.556 12.7792V4.48H112.581V28H117.556V26.4208C118.651 27.6976 120.277 28.4704 122.499 28.4704C126.845 28.4704 130.427 24.6064 130.427 19.6C130.427 14.5936 126.845 10.7296 122.499 10.7296ZM121.504 23.6992C119.215 23.6992 117.556 22.12 117.556 19.6C117.556 17.08 119.215 15.5008 121.504 15.5008C123.793 15.5008 125.451 17.08 125.451 19.6C125.451 22.12 123.793 23.6992 121.504 23.6992Z" fill="black"/>
<path d="M141.209 28.4704C146.086 28.4704 150 24.6064 150 19.6C150 14.5936 146.086 10.7296 141.209 10.7296C136.333 10.7296 132.419 14.5936 132.419 19.6C132.419 24.6064 136.333 28.4704 141.209 28.4704ZM141.209 23.5648C139.053 23.5648 137.395 21.9856 137.395 19.6C137.395 17.2144 139.053 15.6352 141.209 15.6352C143.366 15.6352 145.024 17.2144 145.024 19.6C145.024 21.9856 143.366 23.5648 141.209 23.5648Z" fill="black"/>
</svg>
