<svg width="264" height="24" viewBox="0 0 264 24" fill="none" xmlns="http://www.w3.org/2000/svg">
<path d="M0 2C0 0.89543 0.895431 0 2 0H46C47.1046 0 48 0.895431 48 2V22C48 23.1046 47.1046 24 46 24H2C0.895431 24 0 23.1046 0 22V2Z" fill="#FBFAF8"/>
<path fill-rule="evenodd" clip-rule="evenodd" d="M15.3285 6.40399C15.3955 7.00206 15.1503 7.60236 14.7855 8.03397C14.4207 8.46558 13.8225 8.8011 13.2372 8.75642C13.1572 8.17064 13.4527 7.55991 13.7905 7.17746C14.1675 6.74622 14.8034 6.42522 15.3285 6.40399ZM17.2212 9.88781C17.1255 9.94507 16.0864 10.5663 16.0987 11.8278C16.1124 13.3369 17.4233 13.8623 17.4969 13.8918C17.4986 13.8925 17.4996 13.8929 17.5 13.8931C17.4993 13.8951 17.4979 13.8993 17.496 13.9055C17.463 14.0083 17.2521 14.6664 16.7769 15.345C16.3416 15.9666 15.8911 16.5862 15.1794 16.5989C14.8378 16.6051 14.6094 16.5085 14.372 16.4081C14.1234 16.303 13.8649 16.1937 13.4563 16.1937C13.0284 16.1937 12.758 16.3063 12.4976 16.4148C12.2717 16.5089 12.0533 16.5998 11.7461 16.6116C11.0596 16.6365 10.5371 15.9394 10.0984 15.3197C9.20165 14.0528 8.5166 11.7388 9.43661 10.1762C9.89356 9.40049 10.71 8.9093 11.5965 8.89701C11.9786 8.89004 12.3486 9.03349 12.6726 9.15907C12.9201 9.25502 13.1408 9.34053 13.3192 9.34053C13.4793 9.34053 13.6939 9.25773 13.9443 9.16116C14.3382 9.00918 14.8205 8.8231 15.3176 8.87206C15.6577 8.88695 16.6131 9.00724 17.2266 9.8846C17.2254 9.88533 17.2236 9.8864 17.2212 9.88781Z" fill="#2A2D2E"/>
<path d="M21.4177 16H22.4888V12.9353H24.655C26.2677 12.9353 27.4102 11.7986 27.4102 10.1681V10.1562C27.4102 8.52563 26.2677 7.41281 24.655 7.41281H21.4177V16ZM24.3812 8.36496C25.6071 8.36496 26.3153 9.03741 26.3153 10.1681V10.18C26.3153 11.3107 25.6071 11.9831 24.3812 11.9831H22.4888V8.36496H24.3812ZM29.9286 16.1131C30.7915 16.1131 31.4639 15.7382 31.8686 15.0538H31.9638V16H32.9993V11.6082C32.9993 10.2752 32.1245 9.47183 30.5594 9.47183C29.1907 9.47183 28.2147 10.1502 28.0481 11.1559L28.0421 11.1917H29.0776L29.0836 11.1738C29.2502 10.6739 29.756 10.3883 30.5237 10.3883C31.4818 10.3883 31.9638 10.8167 31.9638 11.6082V12.1914L30.125 12.3045C28.6313 12.3937 27.7863 13.0543 27.7863 14.1969V14.2088C27.7863 15.3752 28.7086 16.1131 29.9286 16.1131ZM28.8455 14.185V14.1731C28.8455 13.5363 29.274 13.1912 30.2499 13.1317L31.9638 13.0245V13.6077C31.9638 14.5242 31.1961 15.2145 30.1428 15.2145C29.399 15.2145 28.8455 14.8336 28.8455 14.185ZM34.5714 18.2495C35.7081 18.2495 36.2377 17.8329 36.7673 16.3928L39.2727 9.5849H38.1836L36.4281 14.8634H36.3329L34.5714 9.5849H33.4646L35.839 16.006L35.72 16.3868C35.4879 17.1247 35.1308 17.3925 34.5417 17.3925C34.3988 17.3925 34.2382 17.3866 34.1132 17.3628V18.2137C34.256 18.2375 34.4346 18.2495 34.5714 18.2495Z" fill="#2A2D2E"/>
<path d="M54 2C54 0.89543 54.8954 0 56 0H100C101.105 0 102 0.895431 102 2V22C102 23.1046 101.105 24 100 24H56C54.8954 24 54 23.1046 54 22V2Z" fill="#FBFAF8"/>
<g clip-path="url(#clip0_5_416)">
<path d="M72.3587 12.1038C72.3592 11.7636 72.3288 11.424 72.2676 11.0887H67.284V13.0104H70.1377C70.0793 13.3171 69.9557 13.6094 69.7744 13.8698C69.5931 14.1302 69.3579 14.3532 69.0828 14.5254V15.7759H70.7863C71.7838 14.9076 72.3587 13.6228 72.3587 12.1038Z" fill="#4285F4"/>
<path d="M67.284 16.9811C68.7088 16.9811 69.9113 16.5385 70.7863 15.776L69.0828 14.5278C68.6083 14.8329 67.9985 15.0052 67.284 15.0052C65.9061 15.0052 64.7358 14.128 64.3175 12.9457H62.563V14.2317C63.0026 15.0582 63.677 15.753 64.5106 16.2385C65.3443 16.7241 66.3045 16.9812 67.284 16.9811Z" fill="#34A853"/>
<path d="M64.3175 12.9457C64.0963 12.3262 64.0963 11.6552 64.3175 11.0357V9.74942H62.563C62.1925 10.445 61.9996 11.2127 61.9996 11.9913C61.9996 12.7699 62.1925 13.5376 62.563 14.2332L64.3175 12.9457Z" fill="#FBBC04"/>
<path d="M77.1346 12.8634V16.3796H75.9525V7.693H79.0856C79.4597 7.68541 79.8317 7.74795 80.18 7.87701C80.5284 8.00606 80.8462 8.19907 81.115 8.44487C81.3823 8.67998 81.5955 8.96455 81.7413 9.28085C81.887 9.59715 81.9623 9.93841 81.9623 10.2834C81.9623 10.6283 81.887 10.9696 81.7413 11.2859C81.5955 11.6022 81.3823 11.8867 81.115 12.1219C80.5668 12.6156 79.8903 12.862 79.0856 12.8612H77.134L77.1346 12.8634ZM77.1346 8.76361V11.7964H79.116C79.4303 11.8019 79.7394 11.7198 80.0047 11.5604C80.27 11.401 80.4797 11.1714 80.6077 10.9001C80.7356 10.6289 80.7761 10.3281 80.7242 10.0353C80.6723 9.74243 80.5301 9.47052 80.3156 9.25347C80.3049 9.2431 80.2956 9.23303 80.2833 9.22297C80.1342 9.07236 79.9529 8.95341 79.7514 8.87401C79.5499 8.7946 79.3329 8.75656 79.1147 8.76239L77.1346 8.76361ZM84.6868 10.2433C85.5606 10.2433 86.2497 10.4635 86.754 10.9039C87.2583 11.3444 87.5108 11.9486 87.5115 12.7166V16.3796H86.381V15.556H86.3302C85.8408 16.2356 85.1897 16.5752 84.377 16.5748C83.6841 16.5748 83.1042 16.3807 82.6373 15.9925C82.4135 15.8143 82.2345 15.5911 82.1134 15.3394C81.9923 15.0876 81.9322 14.8135 81.9374 14.537C81.9374 13.9217 82.1836 13.4326 82.6761 13.0698C83.1686 12.7071 83.8254 12.5253 84.6464 12.5245C85.3477 12.5245 85.9268 12.6465 86.3797 12.8878V12.6321C86.381 12.4437 86.338 12.2573 86.2536 12.0866C86.1693 11.9158 86.0457 11.7649 85.8919 11.6448C85.5794 11.3786 85.172 11.2335 84.7511 11.2385C84.0915 11.2385 83.5692 11.5013 83.1842 12.027L82.1457 11.4066C82.7166 10.6306 83.5633 10.2428 84.6858 10.2433H84.6868ZM83.1574 14.5608C83.1568 14.7026 83.1919 14.8425 83.26 14.969C83.328 15.0954 83.4269 15.2048 83.5485 15.2879C83.81 15.482 84.1344 15.5849 84.4668 15.5792C84.9652 15.5779 85.4429 15.3907 85.7957 15.0583C86.1872 14.7101 86.3828 14.3017 86.3826 13.833C86.0139 13.5558 85.5001 13.4171 84.8412 13.4167C84.3612 13.4167 83.9609 13.5259 83.6403 13.7442C83.3173 13.9672 83.1558 14.2368 83.1558 14.5608H83.1574ZM94 10.4382L90.0551 19H88.8355L90.299 16.0038L87.704 10.4382H88.9882L90.8617 14.7084H90.8872L92.7115 10.4382H94Z" fill="#5F6368"/>
<path d="M67.284 8.97621C68.0373 8.96457 68.7652 9.23321 69.3105 9.72411L70.8199 8.30029C69.8632 7.45211 68.5962 6.98627 67.284 7.00031C66.3046 7.0005 65.3446 7.25766 64.5109 7.74309C63.6773 8.22852 63.0029 8.92314 62.563 9.74943L64.3175 11.0357C64.7358 9.85344 65.9061 8.97621 67.284 8.97621Z" fill="#EA4335"/>
</g>
<path d="M108 2C108 0.89543 108.895 0 110 0H154C155.105 0 156 0.895431 156 2V22C156 23.1046 155.105 24 154 24H110C108.895 24 108 23.1046 108 22V2Z" fill="#FBFAF8"/>
<path fill-rule="evenodd" clip-rule="evenodd" d="M136.72 16.9493C136.491 17.4556 137.048 17.1252 137.116 17.0674C137.868 16.4377 138.421 14.5476 138.081 14.2585C137.651 13.8952 135.661 13.8984 134.778 14.4948C134.41 14.7447 134.616 14.7932 135.005 14.7713C135.685 14.7314 136.296 14.6901 136.819 14.7314C137.315 14.7713 137.343 14.995 137.216 15.4793C137.068 16.0427 136.975 16.3856 136.72 16.9493Z" fill="#FBAF29"/>
<path fill-rule="evenodd" clip-rule="evenodd" d="M135.904 15.4272C130.767 17.3697 124.841 17.1 119.966 14.7195C119.898 14.6868 119.659 14.5601 119.387 14.4337C119.174 14.3356 119.134 14.368 119.1 14.4028C119.052 14.4505 119.07 14.5371 119.146 14.6003C122.008 16.9891 125.45 18.1377 129.208 17.9869C132.077 17.8713 134.75 16.8971 136.28 15.8602C136.506 15.7069 136.587 15.508 136.493 15.4146C136.397 15.3184 136.142 15.3367 135.904 15.4272Z" fill="#FBAF29"/>
<path fill-rule="evenodd" clip-rule="evenodd" d="M142.057 8.00015C143.532 7.98435 144.596 9.26007 144.597 10.9387C144.598 12.5688 143.562 13.8517 142.083 13.889C140.597 13.926 139.517 12.6366 139.516 10.9505C139.514 9.30603 140.572 8.0163 142.057 8.00015ZM127.64 9.13372C127.64 8.07881 125.298 7.36214 124.545 8.93085C123.959 7.71078 122.109 7.75099 121.605 8.94018L121.605 8.31758C121.605 8.22315 121.512 8.13698 121.41 8.13698H120.359C120.257 8.13698 120.164 8.22315 120.164 8.31758V13.5817C120.164 13.6761 120.257 13.7627 120.359 13.7627H121.489C121.591 13.7627 121.681 13.6761 121.681 13.5817V10.2436C121.681 9.86691 121.853 9.44143 122.284 9.35346C122.758 9.25615 123.144 9.49887 123.144 10.0059L123.144 13.5817C123.144 13.6761 123.237 13.7627 123.339 13.7627H124.487C124.589 13.7627 124.682 13.6761 124.682 13.5817L124.683 10.0349C124.683 9.23066 126.127 9.02277 126.128 10.0349V13.5817C126.128 13.6761 126.22 13.7627 126.323 13.7627H127.445C127.547 13.7627 127.64 13.6761 127.64 13.5817V9.13372ZM138.87 8.32637C138.87 8.23194 138.777 8.14648 138.675 8.14648H134.961C134.909 8.14648 134.858 8.16623 134.822 8.19927C134.786 8.23338 134.769 8.28041 134.769 8.32817V9.05956C134.769 9.15327 134.868 9.23693 134.97 9.23693H136.922L134.698 12.2537C134.584 12.408 134.589 12.5102 134.592 12.5551L134.592 12.5616L134.592 12.5686L134.594 13.4081C134.594 13.588 134.666 13.6684 134.889 13.5811C136.249 13.0487 137.699 13.0171 138.792 13.6224C138.881 13.6723 138.989 13.6181 138.989 13.4774L138.989 12.5349C138.989 12.4738 138.954 12.4142 138.898 12.3826C138.267 12.0139 137.464 11.9151 136.685 11.9263L138.765 9.24878C138.865 9.1206 138.87 8.98308 138.87 8.9461V8.32637ZM150 9.52409C150 8.68965 149.455 8.00026 148.178 8.03652C147.585 8.0534 147.124 8.47062 146.867 9.06091V8.30258C146.867 8.20743 146.774 8.12162 146.672 8.12162H145.582C145.48 8.12162 145.387 8.20743 145.387 8.30258V13.5864C145.387 13.6809 145.48 13.7667 145.582 13.7667H146.722C146.824 13.7667 146.917 13.6809 146.917 13.5864V10.2673C146.917 9.77327 147.375 9.35605 147.796 9.34097C148.144 9.32912 148.492 9.63827 148.492 9.98763V13.5864C148.492 13.6809 148.585 13.7667 148.687 13.7667H149.805C149.907 13.7667 150 13.6809 150 13.5864V9.52409ZM131.005 8.01154C132.612 7.95912 133.441 8.52463 133.441 9.41221V11.8753C133.441 12.0602 133.501 12.3855 133.561 12.4584L133.857 12.8186C133.911 12.8886 133.901 12.9949 133.833 13.0552L133.03 13.7658C132.992 13.7991 132.94 13.8175 132.888 13.816C132.836 13.8142 132.785 13.792 132.75 13.7564L132.133 13.1202C131.704 13.5629 131.137 13.8196 130.488 13.8516C129.398 13.9033 128.599 13.3722 128.618 12.2588C128.638 11.0491 129.612 10.4176 130.657 10.3436L131.894 10.2567V9.74326C131.894 9.35117 131.625 9.05531 131.005 9.05531C130.589 9.05531 130.305 9.31167 130.233 9.65744C130.214 9.7447 130.115 9.8104 130.019 9.80107L129.019 9.69479C128.965 9.68904 128.914 9.66211 128.883 9.6219C128.851 9.58133 128.839 9.52819 128.85 9.47899C129.09 8.381 130.024 8.04313 131.005 8.01154ZM118.824 9.41085C118.824 8.52291 117.994 7.9574 116.387 8.00982C115.406 8.04177 114.473 8.37964 114.232 9.47799C114.221 9.52647 114.233 9.57996 114.265 9.62018C114.297 9.66075 114.347 9.6884 114.401 9.69414L115.402 9.79935C115.498 9.80976 115.596 9.74405 115.615 9.65608C115.687 9.31031 115.971 9.05467 116.387 9.05467C117.007 9.05467 117.276 9.34981 117.276 9.74154V10.2557L116.04 10.3422C114.994 10.4158 114.02 11.0474 114 12.2571C113.981 13.3716 114.78 13.9023 115.87 13.8498C116.52 13.819 117.086 13.5622 117.515 13.1185L118.132 13.7551C118.167 13.7902 118.218 13.8129 118.27 13.8154C118.322 13.8168 118.375 13.7985 118.412 13.7651L119.216 13.0538C119.283 12.9939 119.294 12.8872 119.239 12.8172L118.943 12.4578C118.883 12.3838 118.824 12.0589 118.824 11.874V9.41085ZM142.056 12.8036C142.886 12.8036 142.925 11.9774 142.925 10.957C142.925 9.93688 142.833 9.1211 142.056 9.10925C141.253 9.09741 141.188 9.93688 141.188 10.957C141.188 11.9774 141.266 12.8036 142.056 12.8036ZM131.907 11.0349V11.7193C131.907 12.25 131.527 12.702 131.213 12.7893C130.593 12.9627 130.191 12.5167 130.206 12.0413C130.226 11.4406 130.796 11.0744 131.277 11.0579L131.907 11.0349ZM117.289 11.7179V11.0343L116.66 11.0562C116.178 11.0738 115.608 11.4393 115.588 12.0397C115.573 12.5154 115.975 12.961 116.595 12.7879C116.909 12.7007 117.289 12.2483 117.289 11.7179Z" fill="#2A2D2E"/>
<path d="M162 2C162 0.89543 162.895 0 164 0H208C209.105 0 210 0.895431 210 2V22C210 23.1046 209.105 24 208 24H164C162.895 24 162 23.1046 162 22V2Z" fill="#FBFAF8"/>
<g clip-path="url(#clip1_5_416)">
<path fill-rule="evenodd" clip-rule="evenodd" d="M171.777 11.3518C170.862 11.3518 169.801 11.7858 169.227 12.2359L169.753 13.3288C170.214 12.9109 170.959 12.5573 171.631 12.5573C172.27 12.5573 172.619 12.7663 172.619 13.1922C172.619 13.4815 172.384 13.6262 171.947 13.6824C170.295 13.8914 169 14.3414 169 15.6032C169 16.5997 169.72 17.2105 170.838 17.2105C171.639 17.2105 172.351 16.7685 172.691 16.1898V17.0498H174.181V13.4413C174.181 11.9546 173.137 11.3518 171.777 11.3518ZM171.218 16.0532C170.797 16.0532 170.587 15.8523 170.587 15.5148C170.587 14.8879 171.291 14.679 172.578 14.5424C172.586 15.3782 172.011 16.0532 171.218 16.0532Z" fill="black"/>
<path fill-rule="evenodd" clip-rule="evenodd" d="M188.226 12.4448V11.5126H186.737V17.0498H188.331V14.3816C188.331 13.1118 189.1 12.7422 189.643 12.7422C189.853 12.7422 190.137 12.8065 190.323 12.9431L190.614 11.4804C190.371 11.3759 190.112 11.3518 189.902 11.3518C189.084 11.3518 188.566 11.7135 188.226 12.4448Z" fill="black"/>
<path fill-rule="evenodd" clip-rule="evenodd" d="M198.013 11.3518C197.171 11.3518 196.54 11.8501 196.208 12.3243C195.9 11.7054 195.261 11.3518 194.484 11.3518C193.642 11.3518 193.059 11.818 192.784 12.3484V11.5126H191.246V17.0498H192.84V14.1968C192.84 13.1761 193.383 12.6859 193.885 12.6859C194.338 12.6859 194.759 12.9752 194.759 13.7307V17.0498H196.362V14.1968C196.362 13.1601 196.888 12.6859 197.414 12.6859C197.835 12.6859 198.28 12.9913 198.28 13.7226V17.0498H199.875V13.2244C199.875 11.9787 199.033 11.3518 198.013 11.3518Z" fill="black"/>
<path fill-rule="evenodd" clip-rule="evenodd" d="M179.815 11.1027V11.5126H177.395V10.95C177.395 10.2187 177.816 10.0097 178.18 10.0097C178.39 10.0097 178.666 10.058 178.892 10.1866L179.386 9.06947C179.095 8.9007 178.617 8.74801 177.978 8.74801C176.958 8.74801 175.8 9.3186 175.8 11.1108V11.5206H174.877V12.7422H175.8V17.0498H177.395V12.7341H179.815V17.0498H181.41V12.7341H182.859V11.5126H181.41V10.95C181.41 10.2187 181.831 10.0097 182.195 10.0097C182.6 10.0097 182.908 10.1866 182.908 10.1866L183.401 9.06947C183.401 9.06947 182.9 8.74801 181.993 8.74801C180.981 8.73997 179.815 9.31057 179.815 11.1027Z" fill="black"/>
<path fill-rule="evenodd" clip-rule="evenodd" d="M183.806 11.5126H185.401V17.0498H183.806V11.5126Z" fill="black"/>
<path fill-rule="evenodd" clip-rule="evenodd" d="M193.1 3.78946C188.793 3.78946 184.956 6.75495 183.871 10.5723H185.433C186.34 7.72737 189.424 5.23604 193.1 5.23604C197.568 5.23604 201.421 8.61139 201.421 13.8673C201.421 15.0487 201.268 16.1095 200.976 17.0498H202.49L202.506 17.0016C202.757 16.0291 202.879 14.9763 202.879 13.8673C202.879 8.00865 198.58 3.78946 193.1 3.78946Z" fill="#4A4AF4"/>
</g>
<path d="M216 2C216 0.89543 216.895 0 218 0H262C263.105 0 264 0.895431 264 2V22C264 23.1046 263.105 24 262 24H218C216.895 24 216 23.1046 216 22V2Z" fill="#FBFAF8"/>
<path d="M230.735 10.831C230.43 10.2006 229.853 9.79344 228.982 9.79344C228.715 9.79803 228.452 9.8631 228.214 9.98358C227.977 10.1041 227.77 10.2768 227.611 10.4884L227.579 10.5266V8.056C227.579 8.04172 227.573 8.02803 227.563 8.01794C227.553 8.00784 227.539 8.00217 227.525 8.00217H226.293C226.279 8.00242 226.266 8.00821 226.256 8.01828C226.245 8.02835 226.24 8.04189 226.24 8.056V15.1428C226.24 15.1568 226.246 15.1702 226.256 15.1802C226.266 15.1901 226.279 15.1956 226.293 15.1956H227.612C227.626 15.1956 227.64 15.1901 227.65 15.1802C227.66 15.1703 227.666 15.1569 227.666 15.1428V12.1211C227.666 11.5338 228.064 11.1178 228.699 11.1178C229.394 11.1178 229.57 11.6816 229.57 12.2562V15.1428C229.57 15.1568 229.575 15.1702 229.585 15.1802C229.595 15.1901 229.609 15.1956 229.623 15.1956H230.939C230.953 15.1956 230.967 15.1901 230.977 15.1802C230.987 15.1703 230.993 15.1569 230.993 15.1428V12.0839C230.993 11.9792 230.993 11.8764 230.979 11.7766C230.957 11.4494 230.874 11.129 230.735 10.831Z" fill="#5A31F4"/>
<path d="M224.152 11.8812C224.152 11.8812 223.481 11.7256 223.234 11.663C222.987 11.6003 222.555 11.4672 222.555 11.1451C222.555 10.8231 222.903 10.7203 223.257 10.7203C223.61 10.7203 224.003 10.8045 224.034 11.1912C224.035 11.2051 224.042 11.218 224.052 11.2275C224.063 11.2369 224.076 11.2421 224.091 11.2421L225.39 11.2372C225.398 11.2372 225.405 11.2356 225.412 11.2327C225.419 11.2297 225.426 11.2253 225.431 11.2197C225.436 11.2142 225.44 11.2077 225.443 11.2006C225.445 11.1935 225.446 11.1859 225.446 11.1784C225.365 9.94118 224.264 9.49875 223.249 9.49875C222.044 9.49875 221.164 10.2818 221.164 11.1451C221.164 11.7755 221.345 12.3667 222.765 12.7779C223.014 12.8493 223.353 12.9423 223.649 13.0235C224.004 13.1214 224.196 13.2692 224.196 13.5022C224.196 13.7724 223.799 13.9603 223.408 13.9603C222.844 13.9603 222.443 13.7538 222.41 13.3828C222.408 13.3692 222.401 13.3567 222.391 13.3477C222.38 13.3387 222.367 13.3337 222.353 13.3338L221.057 13.3397C221.049 13.3397 221.041 13.3412 221.034 13.3441C221.028 13.3471 221.021 13.3513 221.016 13.3567C221.011 13.3621 221.006 13.3685 221.004 13.3755C221.001 13.3825 221 13.39 221 13.3975C221.06 14.5652 222.203 15.1946 223.27 15.1946C224.858 15.1946 225.576 14.3137 225.576 13.4885C225.578 13.1009 225.487 12.218 224.152 11.8812Z" fill="#5A31F4"/>
<path d="M240.87 9.7914C240.21 9.7914 239.657 10.1516 239.301 10.5862V9.8423C239.301 9.82845 239.295 9.81515 239.285 9.80527C239.276 9.79539 239.262 9.7897 239.248 9.78946H238.015C238.001 9.78946 237.987 9.79501 237.977 9.80492C237.967 9.81484 237.961 9.8283 237.961 9.8423V16.7921C237.962 16.8059 237.968 16.8191 237.978 16.8288C237.988 16.8385 238.001 16.844 238.015 16.844H239.335C239.348 16.844 239.362 16.8385 239.372 16.8288C239.382 16.8191 239.387 16.8058 239.387 16.7921V14.5074H239.407C239.616 14.8226 240.189 15.2005 240.938 15.2005C242.345 15.2005 243.519 14.0494 243.519 12.494C243.52 11.0013 242.353 9.7914 240.87 9.7914ZM240.748 13.8761C240.47 13.8829 240.197 13.8079 239.962 13.6607C239.728 13.5135 239.543 13.3007 239.432 13.0496C239.32 12.7984 239.287 12.5202 239.337 12.2505C239.387 11.9809 239.517 11.7319 239.711 11.5355C239.905 11.3391 240.154 11.204 240.426 11.1477C240.698 11.0913 240.981 11.1161 241.238 11.2189C241.496 11.3218 241.717 11.498 241.872 11.7251C242.028 11.9522 242.111 12.2199 242.112 12.494C242.115 12.6731 242.082 12.8511 242.015 13.0177C241.948 13.1842 241.848 13.336 241.721 13.4645C241.595 13.5929 241.444 13.6954 241.276 13.766C241.109 13.8366 240.93 13.8741 240.748 13.8761Z" fill="#5A31F4"/>
<path d="M234.057 9.48608C232.827 9.48608 232.213 9.89817 231.721 10.2281L231.706 10.2378C231.681 10.255 231.663 10.2809 231.656 10.3105C231.649 10.3401 231.654 10.3711 231.669 10.3974L232.156 11.2235C232.165 11.239 232.177 11.2523 232.192 11.2624C232.207 11.2726 232.224 11.2793 232.242 11.2822C232.26 11.2854 232.278 11.2846 232.295 11.28C232.312 11.2755 232.328 11.2672 232.341 11.2558L232.38 11.2245C232.633 11.015 233.039 10.7351 234.022 10.6587C234.569 10.6157 235.042 10.7566 235.39 11.0777C235.773 11.4261 236.003 11.989 236.003 12.5831C236.003 13.6765 235.35 14.3636 234.3 14.3773C233.435 14.3724 232.855 13.928 232.855 13.2712C232.855 12.9228 233.014 12.6957 233.326 12.4686C233.35 12.4518 233.367 12.4271 233.374 12.399C233.38 12.371 233.377 12.3414 233.363 12.3159L232.926 11.5015C232.918 11.4869 232.907 11.4741 232.894 11.4637C232.881 11.4532 232.866 11.4455 232.85 11.4408C232.833 11.436 232.816 11.4346 232.799 11.4368C232.782 11.439 232.765 11.4447 232.75 11.4536C232.26 11.7403 231.658 12.265 231.691 13.2732C231.731 14.5565 232.813 15.5363 234.22 15.5764H234.29H234.387C236.058 15.5226 237.266 14.299 237.266 12.6399C237.266 11.1168 236.14 9.48608 234.057 9.48608Z" fill="#5A31F4"/>
<path d="M248.718 10.2691H247.88C247.861 10.2694 247.842 10.2772 247.828 10.2909C247.814 10.3046 247.806 10.3232 247.806 10.3425V12.0761C247.806 12.0954 247.814 12.1138 247.828 12.1273C247.842 12.1409 247.861 12.1485 247.88 12.1485H248.718C249.228 12.1485 249.605 11.7521 249.605 11.2088C249.605 10.6656 249.228 10.2691 248.718 10.2691Z" fill="#5A31F4"/>
<path d="M251.292 13.3358C251.292 13.5873 251.508 13.7273 251.883 13.7273C252.393 13.7273 252.695 13.4552 252.695 12.9726V12.8336L251.931 12.8728C251.528 12.8923 251.292 13.0578 251.292 13.3358Z" fill="#5A31F4"/>
<path d="M257.497 8.0178H246.239C246.055 8.0178 245.872 8.05368 245.701 8.1234C245.53 8.19312 245.375 8.2953 245.245 8.42411C245.114 8.55292 245.011 8.70583 244.94 8.8741C244.869 9.04238 244.833 9.22272 244.833 9.40482V15.4814C244.833 15.8491 244.982 16.2018 245.245 16.4619C245.509 16.7219 245.866 16.8682 246.239 16.8684H257.497C257.682 16.869 257.865 16.8335 258.036 16.7642C258.207 16.6949 258.363 16.5929 258.494 16.4643C258.625 16.3356 258.729 16.1828 258.8 16.0145C258.871 15.8462 258.908 15.6657 258.908 15.4834V9.40677C258.908 9.2241 258.872 9.04314 258.801 8.87432C258.731 8.7055 258.627 8.55214 258.496 8.42306C258.364 8.29398 258.209 8.19173 258.037 8.12218C257.866 8.05263 257.683 8.01715 257.497 8.0178ZM248.761 12.8308H247.875C247.856 12.8308 247.837 12.8385 247.823 12.8522C247.809 12.866 247.801 12.8847 247.801 12.9042V14.1473C247.801 14.1667 247.793 14.1854 247.779 14.1992C247.765 14.213 247.746 14.2207 247.726 14.2207H247.103C247.083 14.2204 247.064 14.2126 247.05 14.1989C247.037 14.1852 247.029 14.1667 247.028 14.1473V9.66322C247.028 9.64376 247.036 9.62509 247.05 9.61131C247.064 9.59755 247.083 9.58982 247.103 9.58982H248.761C249.7 9.58982 250.372 10.2642 250.372 11.2108C250.372 12.1573 249.705 12.8327 248.766 12.8327L248.761 12.8308ZM253.427 14.1463C253.427 14.156 253.425 14.1657 253.421 14.1747C253.418 14.1837 253.412 14.1919 253.405 14.1988C253.398 14.2058 253.39 14.2113 253.381 14.215C253.372 14.2188 253.362 14.2207 253.352 14.2207H252.764C252.754 14.2207 252.744 14.2188 252.735 14.215C252.726 14.2113 252.718 14.2058 252.711 14.1988C252.704 14.1919 252.698 14.1837 252.695 14.1747C252.691 14.1657 252.689 14.156 252.689 14.1463V14.0122C252.69 14.0004 252.687 13.9887 252.681 13.9787C252.675 13.9687 252.665 13.9609 252.654 13.9566C252.643 13.9523 252.631 13.9517 252.619 13.9549C252.608 13.958 252.597 13.9647 252.59 13.974C252.414 14.1629 252.128 14.3 251.673 14.3C251.002 14.3 250.558 13.9554 250.558 13.3603C250.551 13.2152 250.582 13.0708 250.646 12.9402C250.711 12.8096 250.807 12.6969 250.927 12.6125C251.169 12.4333 251.545 12.3404 252.101 12.3188L252.692 12.2992V12.1289C252.692 11.7853 252.458 11.6395 252.082 11.6395C251.705 11.6395 251.468 11.7707 251.413 11.985C251.408 12.0002 251.399 12.0134 251.386 12.0226C251.373 12.0319 251.357 12.0365 251.341 12.0359H250.758C250.748 12.0362 250.737 12.0341 250.727 12.0299C250.717 12.0257 250.708 12.0194 250.701 12.0114C250.694 12.0035 250.689 11.9942 250.686 11.984C250.683 11.9739 250.682 11.9632 250.684 11.9527C250.771 11.4437 251.198 11.0571 252.109 11.0571C253.075 11.0571 253.424 11.5005 253.424 12.3472L253.427 14.1463ZM257.094 11.2372L255.784 14.6837C255.486 15.4844 254.965 15.6899 254.394 15.6899C254.286 15.6925 254.179 15.6797 254.075 15.6518C254.059 15.6475 254.045 15.6381 254.034 15.625C254.024 15.6119 254.019 15.5958 254.019 15.5793V15.0556C254.019 15.0447 254.021 15.0339 254.026 15.0239C254.03 15.014 254.037 15.0052 254.046 14.9982C254.054 14.9912 254.064 14.9861 254.075 14.9834C254.086 14.9806 254.097 14.9802 254.108 14.9822C254.198 14.9991 254.289 15.0076 254.381 15.0077C254.539 15.0155 254.695 14.9708 254.824 14.8808C254.953 14.7909 255.048 14.6608 255.093 14.5114L255.132 14.391C255.138 14.3749 255.138 14.3572 255.132 14.3411L253.906 11.2382C253.903 11.2271 253.902 11.2153 253.903 11.2037C253.905 11.1921 253.91 11.1811 253.916 11.1716C253.923 11.1621 253.932 11.1543 253.943 11.1488C253.953 11.1434 253.965 11.1405 253.977 11.1403H254.573C254.588 11.1404 254.603 11.1451 254.615 11.1536C254.628 11.1622 254.637 11.1742 254.643 11.1883L255.475 13.3769C255.481 13.3912 255.49 13.4036 255.503 13.4122C255.516 13.4209 255.531 13.4256 255.546 13.4256C255.562 13.4256 255.577 13.4209 255.59 13.4122C255.603 13.4036 255.612 13.3912 255.618 13.3769L256.34 11.1941C256.344 11.1792 256.354 11.1663 256.367 11.1571C256.38 11.148 256.395 11.1431 256.411 11.1432H257.022C257.033 11.1432 257.045 11.1459 257.056 11.1511C257.066 11.1563 257.075 11.1639 257.082 11.1732C257.09 11.1825 257.094 11.1933 257.096 11.2048C257.098 11.2162 257.098 11.228 257.094 11.2392V11.2372Z" fill="#5A31F4"/>
<defs>
<clipPath id="clip0_5_416">
<rect width="32" height="12" fill="white" transform="translate(62 7)"/>
</clipPath>
<clipPath id="clip1_5_416">
<rect width="34" height="13.4211" fill="white" transform="translate(169 3.78946)"/>
</clipPath>
</defs>
</svg>
